<svg xmlns="http://www.w3.org/2000/svg" viewBox="0 0 712.14663 712.66664"><polygon points="356.073 696.833 40.073 526.833 33.073 195.833 336.073 15.833 674.185 202.671 685.073 518.833 356.073 696.833" style="fill:#5a8d8d"/><path d="M733.07332,333.83334c-1.23666-43.70235-5.39335-71.565-19.39335-95.342-19.91329-33.817-55.77329-52.636-127.49665-90.274l-66.66667-34.985c-58.52-30.71033-87.78-46.06566-119.25665-46.06566S339.52335,82.522,281.003,113.23234l-66.66666,34.985c-71.722,37.638-107.58333,56.457-127.49633,90.274C66.92668,272.30834,66.92668,314.389,66.92668,398.55v3.9c0,84.16,0,126.24333,19.91333,160.06,19.913,33.81665,55.77433,52.63334,127.49633,90.27334L281.003,687.76666c58.52035,30.71,87.78035,46.06666,119.257,46.06666s60.73666-15.35663,119.25665-46.06666l66.66667-34.98332c71.72336-37.64,107.58336-56.45669,127.49665-90.27334,14-23.78,18.15669-51.64,19.39335-95.34334Z" transform="translate(-43.92668 -44.16668)" style="fill:none;stroke:#1c454c;stroke-linecap:round;stroke-miterlimit:133.3333282470703;stroke-width:46px"/><path d="M700.26,250.5,566.92666,317.16667M400.26,400.5l-300-150m300,150V717.16665m0-316.66665s91.42-45.71,150-75c6.51-3.25432,16.66666-8.33333,16.66666-8.33333" transform="translate(-43.92668 -44.16668)" style="fill:none;stroke:#1c454c;stroke-linecap:round;stroke-miterlimit:133.3333282470703;stroke-width:49.99999809265137px"/><polyline points="206.073 96.833 508.073 262.833 523 273" style="fill:none;stroke:#1c454c;stroke-linecap:round;stroke-miterlimit:133.3333282470703;stroke-width:50px"/><line x1="409.07332" y1="513.83332" x2="517.07332" y2="459.83332" style="fill:none;stroke:#1c454c;stroke-linecap:round;stroke-miterlimit:133.3333282470703;stroke-width:25px"/><line x1="408.66738" y1="563.46702" x2="516.66738" y2="509.46702" style="fill:none;stroke:#1c454c;stroke-linecap:round;stroke-miterlimit:133.3333282470703;stroke-width:25px"/><line x1="408.66738" y1="613.46702" x2="516.57332" y2="559.33332" style="fill:none;stroke:#1c454c;stroke-linecap:round;stroke-miterlimit:133.3333282470703;stroke-width:25px"/></svg>